<mxfile host="Electron" agent="Mozilla/5.0 (Windows NT 10.0; Win64; x64) AppleWebKit/537.36 (KHTML, like Gecko) draw.io/25.0.2 Chrome/128.0.6613.186 Electron/32.2.5 Safari/537.36" version="25.0.2">
  <diagram name="Page-1" id="B4YJFLZ05sE_gBHIp2Y9">
    <mxGraphModel dx="819" dy="482" grid="1" gridSize="10" guides="1" tooltips="1" connect="1" arrows="1" fold="1" page="1" pageScale="1" pageWidth="827" pageHeight="1169" math="0" shadow="0">
      <root>
        <mxCell id="0" />
        <mxCell id="1" parent="0" />
        <mxCell id="_GExJXPAQfchs22DIr4t-3" value="" style="edgeStyle=orthogonalEdgeStyle;rounded=0;orthogonalLoop=1;jettySize=auto;html=1;" edge="1" parent="1" source="_GExJXPAQfchs22DIr4t-1" target="_GExJXPAQfchs22DIr4t-2">
          <mxGeometry relative="1" as="geometry" />
        </mxCell>
        <mxCell id="_GExJXPAQfchs22DIr4t-15" style="edgeStyle=orthogonalEdgeStyle;rounded=0;orthogonalLoop=1;jettySize=auto;html=1;" edge="1" parent="1" source="_GExJXPAQfchs22DIr4t-1" target="_GExJXPAQfchs22DIr4t-14">
          <mxGeometry relative="1" as="geometry" />
        </mxCell>
        <mxCell id="_GExJXPAQfchs22DIr4t-1" value="textures" style="rounded=0;whiteSpace=wrap;html=1;" vertex="1" parent="1">
          <mxGeometry x="20" y="20" width="120" height="60" as="geometry" />
        </mxCell>
        <mxCell id="_GExJXPAQfchs22DIr4t-5" value="" style="edgeStyle=orthogonalEdgeStyle;rounded=0;orthogonalLoop=1;jettySize=auto;html=1;" edge="1" parent="1" source="_GExJXPAQfchs22DIr4t-2" target="_GExJXPAQfchs22DIr4t-4">
          <mxGeometry relative="1" as="geometry" />
        </mxCell>
        <mxCell id="_GExJXPAQfchs22DIr4t-6" style="edgeStyle=orthogonalEdgeStyle;rounded=0;orthogonalLoop=1;jettySize=auto;html=1;" edge="1" parent="1" source="_GExJXPAQfchs22DIr4t-2" target="_GExJXPAQfchs22DIr4t-7">
          <mxGeometry relative="1" as="geometry">
            <mxPoint x="370" y="150" as="targetPoint" />
            <Array as="points">
              <mxPoint x="320" y="50" />
              <mxPoint x="320" y="140" />
            </Array>
          </mxGeometry>
        </mxCell>
        <mxCell id="_GExJXPAQfchs22DIr4t-9" style="edgeStyle=orthogonalEdgeStyle;rounded=0;orthogonalLoop=1;jettySize=auto;html=1;entryX=0;entryY=0.5;entryDx=0;entryDy=0;" edge="1" parent="1" source="_GExJXPAQfchs22DIr4t-2" target="_GExJXPAQfchs22DIr4t-8">
          <mxGeometry relative="1" as="geometry" />
        </mxCell>
        <mxCell id="_GExJXPAQfchs22DIr4t-13" style="edgeStyle=orthogonalEdgeStyle;rounded=0;orthogonalLoop=1;jettySize=auto;html=1;entryX=0;entryY=0.5;entryDx=0;entryDy=0;" edge="1" parent="1" source="_GExJXPAQfchs22DIr4t-2" target="_GExJXPAQfchs22DIr4t-11">
          <mxGeometry relative="1" as="geometry" />
        </mxCell>
        <mxCell id="_GExJXPAQfchs22DIr4t-2" value="loadTextures" style="whiteSpace=wrap;html=1;rounded=1;" vertex="1" parent="1">
          <mxGeometry x="180" y="20" width="120" height="60" as="geometry" />
        </mxCell>
        <mxCell id="_GExJXPAQfchs22DIr4t-4" value="populateTexturePathArr" style="whiteSpace=wrap;html=1;rounded=1;" vertex="1" parent="1">
          <mxGeometry x="340" y="20" width="150" height="60" as="geometry" />
        </mxCell>
        <mxCell id="_GExJXPAQfchs22DIr4t-7" value="loadTexsFromPathArr" style="rounded=1;whiteSpace=wrap;html=1;" vertex="1" parent="1">
          <mxGeometry x="340" y="110" width="130" height="60" as="geometry" />
        </mxCell>
        <mxCell id="_GExJXPAQfchs22DIr4t-8" value="scrollBgnd" style="rounded=1;whiteSpace=wrap;html=1;dashed=1;" vertex="1" parent="1">
          <mxGeometry x="340" y="190" width="130" height="60" as="geometry" />
        </mxCell>
        <mxCell id="_GExJXPAQfchs22DIr4t-10" value="dotted = existing from template/lib" style="rounded=1;whiteSpace=wrap;html=1;dashed=1;" vertex="1" parent="1">
          <mxGeometry x="680" y="20" width="120" height="60" as="geometry" />
        </mxCell>
        <mxCell id="_GExJXPAQfchs22DIr4t-11" value="drawBgnd" style="rounded=1;whiteSpace=wrap;html=1;dashed=1;" vertex="1" parent="1">
          <mxGeometry x="340" y="270" width="130" height="60" as="geometry" />
        </mxCell>
        <mxCell id="_GExJXPAQfchs22DIr4t-14" value="&lt;div&gt;Varibles:&lt;/div&gt;textureArr&lt;div&gt;texturePathArr&lt;/div&gt;&lt;div&gt;textureIndexLookupEnum&lt;/div&gt;&lt;div&gt;&lt;br&gt;&lt;/div&gt;&lt;div&gt;[not metioning existing varibles for background implementation]&lt;/div&gt;" style="shape=note;whiteSpace=wrap;html=1;backgroundOutline=1;darkOpacity=0.05;" vertex="1" parent="1">
          <mxGeometry x="20" y="120" width="160" height="150" as="geometry" />
        </mxCell>
      </root>
    </mxGraphModel>
  </diagram>
</mxfile>
